<?xml version="1.0" encoding="utf-8"?>
<!-- Generator: Adobe Illustrator 20.0.0, SVG Export Plug-In . SVG Version: 6.00 Build 0)  -->
<svg version="1.1" id="Layer_1" xmlns="http://www.w3.org/2000/svg" xmlns:xlink="http://www.w3.org/1999/xlink" x="0px" y="0px"
	 viewBox="0 0 876 659.6" style="enable-background:new 0 0 876 659.6;" xml:space="preserve">
<style type="text/css">
	.st0{opacity:0.2;}
	.st1{fill:#FCEE21;}
</style>
<g class="st0">
	<path class="st1" d="M393.8,659.6c-1.2,0-3.6,0-4.9-1.2c-7.3-2.4-12.1-8.5-13.4-15.8l-27.9-313.3l-40.1,21.9
		c-6.1,3.6-13.4,2.4-19.4-1.2L7.6,153.2c-6.1-4.9-8.5-12.1-7.3-19.4c1.2-7.3,7.3-13.4,15.8-13.4L855.2,0.2
		c7.3-1.2,14.6,2.4,18.2,8.5c3.6,6.1,3.6,14.6-1.2,20.6l-463.9,623C405.9,657.2,399.8,659.6,393.8,659.6z M381.6,303.8l25.5,289
		L790.8,76.7L381.6,303.8z M67.1,149.6l227.1,160.3L762.9,50L67.1,149.6z"/>
</g>
</svg>
